<?xml version="1.0" encoding="UTF-8" standalone="no"?>
<svg
   xmlns:dc="http://purl.org/dc/elements/1.1/"
   xmlns:cc="http://creativecommons.org/ns#"
   xmlns:rdf="http://www.w3.org/1999/02/22-rdf-syntax-ns#"
   xmlns:svg="http://www.w3.org/2000/svg"
   xmlns="http://www.w3.org/2000/svg"
   xmlns:sodipodi="http://sodipodi.sourceforge.net/DTD/sodipodi-0.dtd"
   xmlns:inkscape="http://www.inkscape.org/namespaces/inkscape"
   width="800"
   height="800"
   version="1.1"
   id="svg227"
   sodipodi:docname="rocket-launch-space.svg"
   inkscape:version="1.0.2 (e86c870879, 2021-01-15, custom)">
  <metadata
     id="metadata233">
    <rdf:RDF>
      <cc:Work
         rdf:about="">
        <dc:format>image/svg+xml</dc:format>
        <dc:type
           rdf:resource="http://purl.org/dc/dcmitype/StillImage" />
        <dc:title></dc:title>
      </cc:Work>
    </rdf:RDF>
  </metadata>
  <defs
     id="defs231" />
  <sodipodi:namedview
     pagecolor="#ffffff"
     bordercolor="#666666"
     borderopacity="1"
     objecttolerance="10"
     gridtolerance="10"
     guidetolerance="10"
     inkscape:pageopacity="0"
     inkscape:pageshadow="2"
     inkscape:window-width="1280"
     inkscape:window-height="658"
     id="namedview229"
     showgrid="false"
     inkscape:zoom="0.58054796"
     inkscape:cx="424.29256"
     inkscape:cy="507.49959"
     inkscape:window-x="-6"
     inkscape:window-y="-6"
     inkscape:window-maximized="1"
     inkscape:current-layer="svg227"
     inkscape:document-rotation="0" />
  <path
     d="M800 800H0V0h800z"
     fill="#193441"
     id="path199" />
  <g
     id="g1127">
    <path
       d="M800 410.253V717.4a83.073 83.073 0 01-25.333-2.267v66.2H0V423.28C8.907 410.307 22.64 402 38.053 402c26.934 0 48.774 25.373 48.774 56.667 0 1.013-.027 2.013-.08 3.013C96.693 448.4 111.32 440 127.653 440c6.56 0 12.84 1.347 18.654 3.827 6.426-15.28 19.933-25.8 35.56-25.8 20.146 0 36.76 17.493 39.226 40.12 9.747-6.04 20.854-9.48 32.667-9.48 38.333 0 69.413 36.12 69.413 80.666 0 1.24-.026 2.454-.08 3.68 5.374-2.373 11.2-3.68 17.294-3.68 18.693 0 34.906 12.24 43.093 30.174.627.653 1.227 1.32 1.827 1.986 8.066-15.693 22.8-26.226 39.666-26.226 4.64 0 9.12.813 13.347 2.293a56.464 56.464 0 0125.107 3.453 84.197 84.197 0 01-.094-3.68c0-44.546 36.12-80.666 80.667-80.666a80.43 80.43 0 0125.893 4.266 32.212 32.212 0 01-5.893-18.6C564 424.48 578.48 410 596.333 410c11.96 0 22.387 6.493 27.987 16.147a51.792 51.792 0 013.227-.12c8.44 0 16.333 2.293 23.133 6.266-.013-.106-.013-.2-.013-.293 0-23.56 19.106-42.667 42.666-42.667 12.48 0 23.694 5.36 31.494 13.894A37.203 37.203 0 01740 400c12.467 0 23.493 6.12 30.28 15.507 7.387-3.534 15.653-5.507 24.387-5.507 1.8 0 3.573.08 5.333.253"
       fill="#3498db"
       id="path203" />
  </g>
  <path
     id="path286"
     style="fill:#ffffff"
     d="M 606.61133 70.666016 C 583.86333 70.666016 565.42188 89.106469 565.42188 111.85547 C 565.42188 112.03347 565.43255 112.20972 565.43555 112.38672 C 547.60055 115.77472 534.11328 131.43681 534.11328 150.25781 C 534.11328 168.68261 547.03964 184.07518 564.31641 187.89258 C 569.44953 190.23009 575.56987 191.59375 582.14648 191.59375 A 32.63056 22.881714 0 0 0 596.93164 189.12109 C 599.61449 201.52407 614.88383 211.0293 633.32031 211.0293 C 651.90715 211.0293 667.27073 201.36669 669.76758 188.81445 L 685.53125 188.81445 L 685.53125 188.76172 C 704.39125 187.75872 719.375 172.15202 719.375 153.04102 C 719.375 139.73102 712.10141 128.1278 701.31641 121.9668 C 700.95541 98.507797 681.83797 79.599609 658.29297 79.599609 A 42.839 42.839 0 0 0 637.69141 84.845703 C 630.14141 76.162703 619.02233 70.666016 606.61133 70.666016 z " />
  <path
     id="path284"
     style="fill:#ffffff"
     d="M 141.47656 79.103516 L 141.47656 79.105469 C 119.79556 79.105469 101.83859 95.045703 98.683594 115.8457 A 38.373 38.373 0 0 0 81.296875 111.69922 C 60.000875 111.69922 42.738281 128.96281 42.738281 150.25781 C 42.738281 159.20648 45.790891 167.44036 50.90625 173.98242 C 50.90657 173.98283 50.90593 173.98397 50.90625 173.98438 C 53.572786 185.11179 63.706256 193.79683 76.654297 195.9375 C 76.648717 196.07006 76.635612 196.20068 76.632812 196.33398 C 76.261135 213.37046 91.884497 227.18164 111.5293 227.18164 C 122.24724 227.18164 131.93964 223.06315 138.60156 216.56055 A 32.058635 37.021636 86.236625 0 0 156.30859 220.49023 C 176.62119 220.49023 193.42363 206.35808 194.15039 188.81445 L 194.1543 188.81445 L 194.1543 188.76172 C 213.0153 187.75972 228 172.15106 228 153.03906 C 228 133.28306 211.98356 117.26953 192.22656 117.26953 C 189.59056 117.26953 187.02378 117.56152 184.55078 118.10352 C 182.39678 96.210516 163.93456 79.103516 141.47656 79.103516 z " />
  <g
     id="g1130">
    <path
       d="M 800,432.307 V 800 H 0 V 456.427 c 20.587,10.64 34.667,32.133 34.667,56.906 0,3.92 -0.374,7.76 -1.054,11.494 a 48.627,48.627 0 0 1 10.374,12.293 44.057,44.057 0 0 1 21.306,-5.467 c 22.774,0 41.534,17.227 43.96,39.36 a 48.958,48.958 0 0 1 24.6,8.36 C 139.64,558.96 158.4,544 180.667,544 c 2.56,0 5.066,0.2 7.52,0.573 C 193,530 206.733,519.48 222.933,519.48 c 13.64,0 25.534,7.467 31.827,18.533 a 58.945,58.945 0 0 1 9.773,-0.826 c 30.72,0 55.88,23.813 58.027,54 8.893,-17.36 26.96,-29.254 47.8,-29.254 20.04,0 37.507,10.987 46.733,27.254 8.92,-19.574 28.654,-33.187 51.574,-33.187 7.08,0 13.84,1.307 20.093,3.68 A 84.197,84.197 0 0 1 488.667,556 c 0,-44.547 36.12,-80.667 80.666,-80.667 13.72,0 26.64,3.44 37.96,9.48 2.88,-22.626 22.187,-40.12 45.587,-40.12 18.16,0 33.853,10.52 41.32,25.8 6.76,-2.48 14.067,-3.826 21.68,-3.826 18.987,0 35.987,8.4 47.533,21.68 -0.053,-1 -0.08,-2 -0.08,-3.014 0,-24.253 15.24,-44.946 36.667,-53.026"
       id="path205"
       style="fill:#ffffff" />
  </g>
  <g
     id="g300" />
  <g
     id="rocket-ship"
     inkscape:label="space-ship"
     transform="translate(-18.947612,3.445021)">
    <g
       id="g204">
      <g
         id="g193">
        <path
           d="m 405.121,325.139 c -8.657,5.338 -15.97,18.639 -20.469,36.437 -1.284,5.052 -2.33,10.475 -3.12,16.174 -1.103,7.927 -1.694,16.405 -1.694,25.217 0,10.598 1.93,20.704 4.861,29.97 h 0.004 c 9.345,29.555 28.912,50.428 28.912,50.428 0,0 19.567,-20.873 28.912,-50.428 h 0.004 c 2.93,-9.266 4.862,-19.372 4.862,-29.97 0,-8.812 -0.588,-17.29 -1.694,-25.217 -0.788,-5.699 -1.837,-11.122 -3.12,-16.174 -4.498,-17.798 -11.811,-31.099 -20.47,-36.437 3.356,5.473 6.167,14.084 8.084,24.693 0.735,4.044 1.335,8.385 1.786,12.947 0.632,6.346 0.97,13.133 0.97,20.188 0,8.484 -1.104,16.575 -2.783,23.994 h -0.002 c -5.35,23.66 -16.549,40.37 -16.549,40.37 0,0 -11.198,-16.71 -16.549,-40.37 h -0.002 c -1.677,-7.419 -2.783,-15.51 -2.783,-23.994 0,-7.055 0.338,-13.842 0.969,-20.188 0.452,-4.562 1.052,-8.903 1.787,-12.947 1.917,-10.61 4.728,-19.22 8.084,-24.693 z"
           fill="#db9e36"
           id="path209" />
        <path
           d="m 413.615,322.564 c -2.934,0 -5.78,0.901 -8.494,2.575 -3.356,5.473 -6.167,14.084 -8.084,24.693 -0.735,4.044 -1.335,8.385 -1.787,12.947 -0.63,6.346 -0.969,13.133 -0.969,20.188 0,8.484 1.106,16.575 2.783,23.994 h 0.002 c 5.351,23.66 16.55,40.37 16.55,40.37 0,0 11.199,-16.71 16.548,-40.37 h 0.002 c 1.679,-7.419 2.783,-15.51 2.783,-23.994 0,-7.055 -0.338,-13.842 -0.97,-20.188 -0.451,-4.562 -1.051,-8.903 -1.786,-12.947 -1.917,-10.61 -4.728,-19.22 -8.084,-24.693 -2.714,-1.674 -5.56,-2.575 -8.494,-2.575 z"
           fill="#edc449"
           id="path213" />
        <path
           d="m 413.615,125.033 c 0,0 -27.419,29.252 -40.513,70.666 h 81.029 c -13.097,-41.414 -40.516,-70.666 -40.516,-70.666 z"
           fill="#b9121b"
           id="path215" />
        <path
           d="m 373.096,195.7 c -4.107,12.986 -6.815,27.146 -6.815,42 0,12.346 0.829,24.227 2.375,35.333 1.107,7.987 2.571,15.586 4.371,22.666 8.28,32.76 23.362,54.668 40.588,54.668 17.227,0 32.306,-21.908 40.586,-54.668 1.802,-7.08 3.269,-14.68 4.375,-22.666 1.547,-11.106 2.373,-22.987 2.373,-35.334 0,-14.853 -2.706,-29.013 -6.812,-42 h -81.041 z"
           fill="#2f8ac7"
           id="path217" />
        <path
           d="m 388.947,301.033 -15.845,3.555 -23.71,24.889 v 64.89 l 39.555,-60.498 z m 49.336,0 v 32.836 l 39.555,60.498 v -64.89 l -23.707,-24.89 z m -24.668,-96.888 c -17.06,0 -30.888,13.828 -30.888,30.888 0,17.059 13.828,30.889 30.888,30.889 17.059,0 30.889,-13.83 30.889,-30.889 0,-17.06 -13.83,-30.888 -30.889,-30.888 z"
           fill="#b9121b"
           id="path219" />
        <path
           d="m 413.615,210.367 c -13.624,0 -24.668,11.044 -24.668,24.666 0,13.623 11.044,24.666 24.668,24.666 13.623,0 24.668,-11.043 24.668,-24.666 0,-13.622 -11.045,-24.666 -24.668,-24.666 z"
           fill="#ffd34e"
           id="path221" />
        <path
           d="m 368.656,273.033 4.371,22.666 h 81.174 c 1.802,-7.08 3.269,-14.68 4.375,-22.666 z"
           fill="#b9121b"
           id="path223" />
        <path
           d="m 408.27,313.7 -5.987,28 7.178,58 h 8.309 l 7.18,-58 -5.99,-28 z"
           fill="#a31018"
           id="path225" />
      </g>
    </g>
  </g>
</svg>
